Coordinates
version=1
nRows=6
nColumns=36
inDegrees=yes

Units are S.I. units (second, meters, Newtons, ...)
If the header above contains a line with 'inDegrees', this indicates whether rotational values are in degrees (yes) or radians (no).

endheader
time	pelvis_tilt	pelvis_list	pelvis_rotation	pelvis_tx	pelvis_ty	pelvis_tz	hip_flexion_r	hip_adduction_r	hip_rotation_r	knee_angle_r	knee_angle_r_beta	ankle_angle_r	subtalar_angle_r	mtp_angle_r	hip_flexion_l	hip_adduction_l	hip_rotation_l	knee_angle_l	knee_angle_l_beta	ankle_angle_l	subtalar_angle_l	mtp_angle_l	lumbar_extension	lumbar_bending	lumbar_rotation	arm_flex_r	arm_add_r	arm_rot_r	elbow_flex_r	pro_sup_r	arm_flex_l	arm_add_l	arm_rot_l	elbow_flex_l	pro_sup_l
     29.86666670	     -6.51765138	     -1.75526604	     -1.49330988	      0.99052626	      0.90740467	      0.73605302	     33.54250416	     -0.64724109	      3.67925964	      7.45247716	      0.13007026	     10.22358751	      3.22595545	     -7.49999987	     -3.27232293	     -1.79875599	      2.85453079	     14.65864868	      0.25584168	     19.33651334	     -5.09673895	     -7.49999987	    -11.41370180	      3.17125689	     -4.59854730	     -1.48412470	    -17.09182268	      8.21031238	     19.78075385	     83.06004493	     17.12865498	    -15.54577722	     14.62504176	     31.24636880	     82.94147899
     29.88333330	     -6.50766594	     -2.37384731	     -1.43678461	      0.99496026	      0.90739860	      0.73894788	     33.27403178	      0.40340239	      4.04672172	      7.45483593	      0.13011143	      9.76081932	      3.88113847	     -7.49999987	     -4.29857298	     -2.75668012	      2.35349712	     15.22717985	      0.26576442	     20.63938266	     -4.73628532	     -7.49999987	    -11.07062241	      3.75233664	     -4.02761278	     -2.38327807	    -16.96739569	      5.22818035	     18.62626907	     83.69520349	     17.94131620	    -15.50400641	     17.22524517	     30.14664116	     84.84963109
     29.90000000	     -6.47251911	     -2.98235927	     -1.44183760	      0.99867038	      0.90609317	      0.74170933	     32.90654963	      1.52743996	      4.10219945	      8.52819194	      0.14884503	      8.68408904	      4.06424192	     -7.49999987	     -5.29287601	     -3.69716917	      1.94421279	     16.09533152	      0.28091653	     21.17682958	     -4.97462219	     -7.49999987	    -10.65701449	      4.37030802	     -4.17120338	     -2.77064875	    -17.20165497	      5.06221511	     18.25426912	     83.69048285	     17.49825657	    -15.41433268	     17.21820527	     30.01566388	     84.85326918
     29.91666670	     -6.33698957	     -3.64814508	     -1.44128925	      1.00025749	      0.90318357	      0.74435518	     32.37317636	      2.70018096	      3.97695430	     10.02094734	      0.17489853	      7.11637234	      3.67481381	     -7.49999987	     -6.11403246	     -4.78369066	      0.91412602	     17.77508428	      0.31023375	     21.58377507	     -3.99577982	     -7.49999987	    -10.22756169	      5.09932951	     -4.45366728	     -2.63294864	    -17.15268672	      3.79964982	     17.03905243	     82.97546077	     16.73733325	    -15.11244059	     16.26887051	     29.69291302	     84.04673230
     29.93333330	     -6.20600888	     -4.20019168	     -1.55944743	      1.00044854	      0.90054221	      0.74690419	     31.94529315	      3.73948578	      3.74634056	     11.78453878	      0.20567900	      5.63038658	      3.42969274	     -7.49999987	     -6.64258023	     -5.67864428	      0.00520736	     20.09534444	      0.35072992	     20.91850666	     -3.69399144	     -7.49999987	     -9.97561775	      5.69722514	     -4.40153080	     -2.83111262	    -17.30430240	      2.20176695	     17.10544089	     85.08660252	     15.97685402	    -14.78687466	     15.15042922	     29.71193510	     85.22847555
     29.95000000	     -6.11938943	     -4.73586258	     -1.80354672	      1.00169323	      0.89939567	      0.74976409	     31.52590969	      4.75839446	      3.70833804	     13.51000358	      0.23579404	      4.34879011	      2.98550669	     -7.49999987	     -6.78952542	     -6.53338100	     -0.87901968	     23.06907102	      0.40263124	     19.16924368	     -3.68561215	     -7.49999987	     -9.64783908	      6.29438436	     -3.96006338	     -2.89721028	    -17.59439154	      1.86639209	     16.81825044	     83.57450702	     15.43290053	    -14.32477141	     14.71200170	     29.34885540	     83.74454714
